BJCreeOrigR.ufo
<glyph name="ucas_e" format="2">
  <advance width="1560"/>
  <unicode hex="1401"/>
  <outline>
    <contour>
      <point x="1510" y="1393" type="line"/>
      <point x="780" y="-30" type="line"/>
      <point x="50" y="1393" type="line"/>
    </contour>
    <contour>
      <point x="1297" y="1268" type="line"/>
      <point x="261" y="1268" type="line"/>
      <point x="780" y="240" type="line"/>
    </contour>
  </outline>
</glyph>
<glyph name="ucas_o" format="2">
  <advance width="1642"/>
  <unicode hex="1405"/>
  <outline>
    <contour>
      <point x="1592" y="697" type="line"/>
      <point x="190" y="-30" type="line"/>
      <point x="190" y="1423" type="line"/>
    </contour>
    <contour>
      <point x="1320" y="697" type="line"/>
      <point x="319" y="1214" type="line"/>
      <point x="319" y="181" type="line"/>
    </contour>
  </outline>
</glyph>
<glyph name="ucas_a" format="2">
  <advance width="1642"/>
  <unicode hex="140A"/>
  <outline>
    <contour>
      <point x="1452" y="-30" type="line"/>
      <point x="50" y="696" type="line"/>
      <point x="1452" y="1423" type="line"/>
    </contour>
    <contour>
      <point x="1323" y="180" type="line"/>
      <point x="1323" y="1213" type="line"/>
      <point x="323" y="696" type="line"/>
    </contour>
  </outline>
</glyph>
<glyph name="ucas_wiiWCree" format="2">
  <advance width="1760"/>
  <unicode hex="1411"/>
  <outline>
    <component base="ucas_i"/>
    <component base="ucas_finalmiddledot" xOffset="1290"/>
    <contour>
      <point x="911" y="1675" type="line"/>
      <point x="911" y="1609"/>
      <point x="858" y="1554"/>
      <point x="794" y="1554" type="curve" smooth="yes"/>
      <point x="730" y="1554"/>
      <point x="677" y="1610"/>
      <point x="677" y="1675" type="curve" smooth="yes"/>
      <point x="677" y="1740"/>
      <point x="730" y="1795"/>
      <point x="794" y="1795" type="curve" smooth="yes"/>
      <point x="858" y="1795"/>
      <point x="911" y="1740"/>
      <point x="911" y="1675" type="curve"/>
    </contour>
  </outline>
</glyph>
<glyph name="ucas_woo" format="2">
  <advance width="2025"/>
  <unicode hex="1414"/>
  <outline>
    <component base="ucas_o" xOffset="431"/>
    <component base="ucas_finalmiddledot"/>
    <contour>
      <point x="766" y="1675" type="line"/>
      <point x="766" y="1609"/>
      <point x="713" y="1554"/>
      <point x="649" y="1554" type="curve" smooth="yes"/>
      <point x="585" y="1554"/>
      <point x="532" y="1610"/>
      <point x="532" y="1675" type="curve" smooth="yes"/>
      <point x="532" y="1740"/>
      <point x="585" y="1795"/>
      <point x="649" y="1795" type="curve" smooth="yes"/>
      <point x="713" y="1795"/>
      <point x="766" y="1740"/>
      <point x="766" y="1675" type="curve"/>
    </contour>
  </outline>
</glyph>
<glyph name="ucas_waa" format="2">
  <advance width="2025"/>
  <unicode hex="1419"/>
  <outline>
    <component base="ucas_a" xOffset="430"/>
    <component base="ucas_finalmiddledot"/>
    <contour>
      <point x="1916" y="1675" type="line"/>
      <point x="1916" y="1609"/>
      <point x="1863" y="1554"/>
      <point x="1799" y="1554" type="curve" smooth="yes"/>
      <point x="1735" y="1554"/>
      <point x="1682" y="1610"/>
      <point x="1682" y="1675" type="curve" smooth="yes"/>
      <point x="1682" y="1740"/>
      <point x="1735" y="1795"/>
      <point x="1799" y="1795" type="curve" smooth="yes"/>
      <point x="1863" y="1795"/>
      <point x="1916" y="1740"/>
      <point x="1916" y="1675" type="curve"/>
    </contour>
  </outline>
</glyph>
<glyph name="ucas_ai" format="2">
  <advance width="1137"/>
  <unicode hex="141C"/>
  <outline>
    <contour>
      <point x="982" y="1057" type="line" smooth="yes"/>
      <point x="982" y="853"/>
      <point x="888" y="751"/>
      <point x="701" y="751" type="curve" smooth="yes"/>
      <point x="646" y="751"/>
      <point x="597" y="780"/>
      <point x="554" y="837" type="curve"/>
      <point x="505" y="780"/>
      <point x="432" y="751"/>
      <point x="334" y="751" type="curve" smooth="yes"/>
      <point x="273" y="751"/>
      <point x="221" y="783"/>
      <point x="180" y="846" type="curve" smooth="yes"/>
      <point x="143" y="902"/>
      <point x="125" y="962"/>
      <point x="125" y="1027" type="curve" smooth="yes"/>
      <point x="125" y="1351" type="line"/>
      <point x="237" y="1351" type="line"/>
      <point x="237" y="1063" type="line" smooth="yes"/>
      <point x="237" y="988"/>
      <point x="252" y="924"/>
      <point x="282" y="869" type="curve" smooth="yes"/>
      <point x="314" y="810"/>
      <point x="354" y="781"/>
      <point x="403" y="781" type="curve" smooth="yes"/>
      <point x="463" y="781"/>
      <point x="493" y="861"/>
      <point x="493" y="1020" type="curve" smooth="yes"/>
      <point x="493" y="1351" type="line"/>
      <point x="613" y="1351" type="line"/>
      <point x="613" y="1057" type="line" smooth="yes"/>
      <point x="613" y="999"/>
      <point x="625" y="942"/>
      <point x="649" y="886" type="curve" smooth="yes"/>
      <point x="679" y="816"/>
      <point x="720" y="781"/>
      <point x="769" y="781" type="curve" smooth="yes"/>
      <point x="805" y="781"/>
      <point x="831" y="814"/>
      <point x="848" y="880" type="curve" smooth="yes"/>
      <point x="859" y="923"/>
      <point x="864" y="972"/>
      <point x="864" y="1027" type="curve" smooth="yes"/>
      <point x="864" y="1351" type="line"/>
      <point x="982" y="1351" type="line"/>
    </contour>
  </outline>
</glyph>
<glyph name="ucas_finaltophalfring" format="2">
  <advance width="991"/>
  <unicode hex="1422"/>
  <outline>
    <contour>
      <point x="127" y="737" type="line"/>
      <point x="127" y="961" type="line" smooth="yes"/>
      <point x="127" y="1010"/>
      <point x="137" y="1058"/>
      <point x="156" y="1104" type="curve" smooth="yes"/>
      <point x="175" y="1149"/>
      <point x="201" y="1189"/>
      <point x="236" y="1223" type="curve" smooth="yes"/>
      <point x="271" y="1257"/>
      <point x="311" y="1282"/>
      <point x="354" y="1300" type="curve" smooth="yes"/>
      <point x="398" y="1318"/>
      <point x="445" y="1327"/>
      <point x="496" y="1327" type="curve" smooth="yes"/>
      <point x="561" y="1327"/>
      <point x="623" y="1312"/>
      <point x="680" y="1280" type="curve" smooth="yes"/>
      <point x="738" y="1247"/>
      <point x="782" y="1200"/>
      <point x="815" y="1143" type="curve" smooth="yes"/>
      <point x="848" y="1086"/>
      <point x="864" y="1025"/>
      <point x="864" y="961" type="curve" smooth="yes"/>
      <point x="864" y="737" type="line"/>
      <point x="729" y="737" type="line"/>
      <point x="729" y="956" type="line" smooth="yes"/>
      <point x="729" y="989"/>
      <point x="723" y="1017"/>
      <point x="713" y="1042" type="curve" smooth="yes"/>
      <point x="701" y="1070"/>
      <point x="686" y="1097"/>
      <point x="666" y="1120" type="curve" smooth="yes"/>
      <point x="647" y="1142"/>
      <point x="622" y="1160"/>
      <point x="592" y="1174" type="curve" smooth="yes"/>
      <point x="563" y="1187"/>
      <point x="531" y="1194"/>
      <point x="496" y="1194" type="curve" smooth="yes"/>
      <point x="467" y="1194"/>
      <point x="438" y="1189"/>
      <point x="410" y="1178" type="curve" smooth="yes"/>
      <point x="382" y="1167"/>
      <point x="358" y="1150"/>
      <point x="334" y="1130" type="curve" smooth="yes"/>
      <point x="311" y="1110"/>
      <point x="294" y="1085"/>
      <point x="281" y="1055" type="curve" smooth="yes"/>
      <point x="268" y="1026"/>
      <point x="260" y="993"/>
      <point x="260" y="956" type="curve" smooth="yes"/>
      <point x="260" y="737" type="line"/>
    </contour>
  </outline>
</glyph>
<glyph name="ucas_finaldbleshortvstrokes" format="2">
  <advance width="696"/>
  <unicode hex="1426"/>
  <outline>
    <contour>
      <point x="567" y="809" type="line"/>
      <point x="434" y="809" type="line"/>
      <point x="434" y="1450" type="line"/>
      <point x="567" y="1450" type="line"/>
    </contour>
    <contour>
      <point x="260" y="809" type="line"/>
      <point x="127" y="809" type="line"/>
      <point x="127" y="1450" type="line"/>
      <point x="260" y="1450" type="line"/>
    </contour>
  </outline>
</glyph>
<glyph name="ucas_finalmiddledot" format="2">
  <advance width="521"/>
  <unicode hex="1427"/>
  <outline>
    <contour>
      <point x="362" y="696" type="line"/>
      <point x="362" y="664"/>
      <point x="350" y="636"/>
      <point x="328" y="613" type="curve"/>
      <point x="304" y="590"/>
      <point x="277" y="578"/>
      <point x="245" y="578" type="curve" smooth="yes"/>
      <point x="213" y="578"/>
      <point x="186" y="590"/>
      <point x="163" y="613" type="curve" smooth="yes"/>
      <point x="140" y="636"/>
      <point x="129" y="664"/>
      <point x="129" y="696" type="curve" smooth="yes"/>
      <point x="129" y="728"/>
      <point x="140" y="756"/>
      <point x="163" y="779" type="curve" smooth="yes"/>
      <point x="186" y="802"/>
      <point x="213" y="814"/>
      <point x="245" y="814" type="curve" smooth="yes"/>
      <point x="277" y="814"/>
      <point x="304" y="802"/>
      <point x="328" y="779" type="curve"/>
      <point x="350" y="756"/>
      <point x="362" y="728"/>
      <point x="362" y="696" type="curve"/>
    </contour>
  </outline>
</glyph>
<glyph name="ucas_finalshorthstroke" format="2">
  <advance width="696"/>
  <unicode hex="1428"/>
  <outline>
    <contour>
      <point x="569" y="1096" type="line"/>
      <point x="569" y="963" type="line"/>
      <point x="127" y="963" type="line"/>
      <point x="127" y="1096" type="line"/>
    </contour>
  </outline>
</glyph>
<glyph name="ucas_finaldowntack" format="2">
  <advance width="836"/>
  <unicode hex="142A"/>
  <outline>
    <contour>
      <point x="356" y="727" type="line"/>
      <point x="356" y="1323" type="line"/>
      <point x="127" y="1323" type="line"/>
      <point x="127" y="1446" type="line"/>
      <point x="709" y="1446" type="line"/>
      <point x="709" y="1323" type="line"/>
      <point x="485" y="1323" type="line"/>
      <point x="485" y="727" type="line"/>
    </contour>
  </outline>
</glyph>
<glyph name="ucas_pe" format="2">
  <advance width="1560"/>
  <unicode hex="142F"/>
  <outline>
    <contour>
      <point x="1510" y="1393" type="line"/>
      <point x="775" y="-30" type="line"/>
      <point x="50" y="1393" type="line"/>
      <point x="193" y="1393" type="line"/>
      <point x="777" y="240" type="line"/>
      <point x="1362" y="1393" type="line"/>
    </contour>
  </outline>
</glyph>
<glyph name="ucas_pi" format="2">
  <advance width="1579"/>
  <unicode hex="1431"/>
  <outline>
    <contour>
      <point x="1520" y="0" type="line"/>
      <point x="1376" y="0" type="line"/>
      <point x="793" y="1133" type="line"/>
      <point x="209" y="0" type="line"/>
      <point x="61" y="0" type="line"/>
      <point x="795" y="1405" type="line"/>
    </contour>
  </outline>
</glyph>
<glyph name="ucas_tii" format="2">
  <advance width="1591"/>
  <unicode hex="144F"/>
  <outline>
    <component base="ucas_ti"/>
    <contour>
      <point x="896" y="1675" type="line"/>
      <point x="896" y="1609"/>
      <point x="843" y="1554"/>
      <point x="779" y="1554" type="curve" smooth="yes"/>
      <point x="715" y="1554"/>
      <point x="662" y="1610"/>
      <point x="662" y="1675" type="curve" smooth="yes"/>
      <point x="662" y="1740"/>
      <point x="715" y="1795"/>
      <point x="779" y="1795" type="curve" smooth="yes"/>
      <point x="843" y="1795"/>
      <point x="896" y="1740"/>
      <point x="896" y="1675" type="curve"/>
    </contour>
  </outline>
</glyph>
<glyph name="ucas_ta" format="2">
  <advance width="1153"/>
  <unicode hex="1455"/>
  <outline>
    <contour>
      <point x="1026" y="-2" type="line"/>
      <point x="799" y="-2" type="line" smooth="yes"/>
      <point x="421" y="-2"/>
      <point x="127" y="329"/>
      <point x="127" y="698" type="curve" smooth="yes"/>
      <point x="127" y="1065"/>
      <point x="425" y="1395"/>
      <point x="799" y="1395" type="curve" smooth="yes"/>
      <point x="1026" y="1395" type="line"/>
      <point x="1026" y="1264" type="line"/>
      <point x="969" y="1264"/>
      <point x="912" y="1264"/>
      <point x="854" y="1264" type="curve" smooth="yes"/>
      <point x="757" y="1264"/>
      <point x="658" y="1258"/>
      <point x="569" y="1215" type="curve" smooth="yes"/>
      <point x="379" y="1122"/>
      <point x="258" y="907"/>
      <point x="258" y="698" type="curve" smooth="yes"/>
      <point x="258" y="489"/>
      <point x="380" y="270"/>
      <point x="571" y="178" type="curve" smooth="yes"/>
      <point x="713" y="110"/>
      <point x="874" y="128"/>
      <point x="1026" y="129" type="curve"/>
    </contour>
  </outline>
</glyph>
<glyph name="ucas_twii" format="2">
  <advance width="2021"/>
  <unicode hex="145B"/>
  <outline>
    <component base="ucas_ti" xOffset="389"/>
    <component base="ucas_finalmiddledot"/>
    <contour>
      <point x="1296" y="1675" type="line"/>
      <point x="1296" y="1609"/>
      <point x="1243" y="1554"/>
      <point x="1179" y="1554" type="curve" smooth="yes"/>
      <point x="1115" y="1554"/>
      <point x="1062" y="1610"/>
      <point x="1062" y="1675" type="curve" smooth="yes"/>
      <point x="1062" y="1740"/>
      <point x="1115" y="1795"/>
      <point x="1179" y="1795" type="curve" smooth="yes"/>
      <point x="1243" y="1795"/>
      <point x="1296" y="1740"/>
      <point x="1296" y="1675" type="curve"/>
    </contour>
  </outline>
</glyph>
<glyph name="ucas_twoo" format="2">
  <advance width="1588"/>
  <unicode hex="145F"/>
  <outline>
    <component base="ucas_to" xOffset="435"/>
    <component base="ucas_finalmiddledot" xOffset="41"/>
    <contour>
      <point x="776" y="1675" type="line"/>
      <point x="776" y="1609"/>
      <point x="723" y="1554"/>
      <point x="659" y="1554" type="curve" smooth="yes"/>
      <point x="595" y="1554"/>
      <point x="542" y="1610"/>
      <point x="542" y="1675" type="curve" smooth="yes"/>
      <point x="542" y="1740"/>
      <point x="595" y="1795"/>
      <point x="659" y="1795" type="curve" smooth="yes"/>
      <point x="723" y="1795"/>
      <point x="776" y="1740"/>
      <point x="776" y="1675" type="curve"/>
    </contour>
  </outline>
</glyph>
<glyph name="ucas_ke" format="2">
  <advance width="1130"/>
  <unicode hex="146B"/>
  <outline>
    <contour>
      <point x="940" y="0" type="line"/>
      <point x="815" y="0" type="line"/>
      <point x="815" y="707" type="line"/>
      <point x="740" y="635"/>
      <point x="641" y="596"/>
      <point x="537" y="596" type="curve" smooth="yes"/>
      <point x="307" y="596"/>
      <point x="127" y="779"/>
      <point x="127" y="1008" type="curve" smooth="yes"/>
      <point x="127" y="1233"/>
      <point x="316" y="1407"/>
      <point x="537" y="1407" type="curve" smooth="yes"/>
      <point x="763" y="1407"/>
      <point x="940" y="1218"/>
      <point x="940" y="995" type="curve" smooth="yes"/>
    </contour>
    <contour>
      <point x="815" y="1008" type="line"/>
      <point x="815" y="1160"/>
      <point x="688" y="1282"/>
      <point x="537" y="1282" type="curve" smooth="yes"/>
      <point x="385" y="1282"/>
      <point x="258" y="1162"/>
      <point x="258" y="1008" type="curve" smooth="yes"/>
      <point x="258" y="856"/>
      <point x="384" y="725"/>
      <point x="537" y="725" type="curve" smooth="yes"/>
      <point x="691" y="725"/>
      <point x="815" y="855"/>
      <point x="815" y="1008" type="curve"/>
    </contour>
  </outline>
</glyph>
<glyph name="ucas_ka" format="2">
  <advance width="1130"/>
  <unicode hex="1472"/>
  <outline>
    <contour>
      <point x="1003" y="385" type="line"/>
      <point x="1003" y="160"/>
      <point x="819" y="-14"/>
      <point x="596" y="-14" type="curve" smooth="yes"/>
      <point x="369" y="-14"/>
      <point x="190" y="172"/>
      <point x="190" y="397" type="curve" smooth="yes"/>
      <point x="190" y="1395" type="line"/>
      <point x="315" y="1395" type="line"/>
      <point x="315" y="686" type="line"/>
      <point x="392" y="758"/>
      <point x="491" y="797"/>
      <point x="596" y="797" type="curve" smooth="yes"/>
      <point x="824" y="797"/>
      <point x="1003" y="611"/>
      <point x="1003" y="385" type="curve"/>
    </contour>
    <contour>
      <point x="872" y="385" type="line"/>
      <point x="872" y="541"/>
      <point x="754" y="666"/>
      <point x="596" y="666" type="curve" smooth="yes"/>
      <point x="442" y="666"/>
      <point x="315" y="539"/>
      <point x="315" y="385" type="curve" smooth="yes"/>
      <point x="315" y="229"/>
      <point x="442" y="109"/>
      <point x="596" y="109" type="curve" smooth="yes"/>
      <point x="748" y="109"/>
      <point x="872" y="233"/>
      <point x="872" y="385" type="curve"/>
    </contour>
  </outline>
</glyph>
<glyph name="ucas_kwiiWestCree" format="2">
  <advance width="1508"/>
  <unicode hex="1479"/>
  <outline>
    <component base="ucas_ki"/>
    <component base="ucas_finalmiddledot" xOffset="1002"/>
    <contour>
      <point x="706" y="1675" type="line"/>
      <point x="706" y="1609"/>
      <point x="653" y="1554"/>
      <point x="589" y="1554" type="curve" smooth="yes"/>
      <point x="525" y="1554"/>
      <point x="472" y="1610"/>
      <point x="472" y="1675" type="curve" smooth="yes"/>
      <point x="472" y="1740"/>
      <point x="525" y="1795"/>
      <point x="589" y="1795" type="curve" smooth="yes"/>
      <point x="653" y="1795"/>
      <point x="706" y="1740"/>
      <point x="706" y="1675" type="curve"/>
    </contour>
  </outline>
</glyph>
<glyph name="ucas_kw" format="2">
  <advance width="809"/>
  <unicode hex="1484"/>
  <outline>
    <contour>
      <point x="684" y="874" type="line" smooth="yes"/>
      <point x="684" y="724"/>
      <point x="555" y="600"/>
      <point x="406" y="600" type="curve" smooth="yes"/>
      <point x="255" y="600"/>
      <point x="127" y="728"/>
      <point x="127" y="879" type="curve" smooth="yes"/>
      <point x="127" y="1031"/>
      <point x="255" y="1155"/>
      <point x="406" y="1155" type="curve" smooth="yes"/>
      <point x="458" y="1155"/>
      <point x="510" y="1142"/>
      <point x="553" y="1114" type="curve"/>
      <point x="553" y="1450" type="line"/>
      <point x="684" y="1450" type="line"/>
    </contour>
    <contour>
      <point x="557" y="879" type="line"/>
      <point x="557" y="959"/>
      <point x="486" y="1028"/>
      <point x="406" y="1028" type="curve" smooth="yes"/>
      <point x="326" y="1028"/>
      <point x="254" y="960"/>
      <point x="254" y="879" type="curve" smooth="yes"/>
      <point x="254" y="794"/>
      <point x="321" y="727"/>
      <point x="406" y="727" type="curve" smooth="yes"/>
      <point x="491" y="727"/>
      <point x="557" y="795"/>
      <point x="557" y="879" type="curve"/>
    </contour>
  </outline>
</glyph>
<glyph name="ucas_ce" format="2">
  <advance width="1130"/>
  <unicode hex="1489"/>
  <outline>
    <contour>
      <point x="940" y="0" type="line"/>
      <point x="815" y="0" type="line"/>
      <point x="815" y="1008" type="line" smooth="yes"/>
      <point x="815" y="1161"/>
      <point x="690" y="1286"/>
      <point x="537" y="1286" type="curve" smooth="yes"/>
      <point x="386" y="1286"/>
      <point x="256" y="1160"/>
      <point x="256" y="1008" type="curve" smooth="yes"/>
      <point x="256" y="840" type="line"/>
      <point x="127" y="840" type="line"/>
      <point x="127" y="1008" type="line" smooth="yes"/>
      <point x="127" y="1234"/>
      <point x="313" y="1409"/>
      <point x="537" y="1409" type="curve" smooth="yes"/>
      <point x="761" y="1409"/>
      <point x="940" y="1219"/>
      <point x="940" y="997" type="curve" smooth="yes"/>
    </contour>
  </outline>
</glyph>
<glyph name="ucas_co" format="2">
  <advance width="1130"/>
  <unicode hex="148D"/>
  <outline>
    <contour>
      <point x="940" y="395" type="line" smooth="yes"/>
      <point x="940" y="172"/>
      <point x="762" y="-16"/>
      <point x="537" y="-16" type="curve" smooth="yes"/>
      <point x="314" y="-16"/>
      <point x="127" y="159"/>
      <point x="127" y="385" type="curve" smooth="yes"/>
      <point x="127" y="555" type="line"/>
      <point x="256" y="555" type="line"/>
      <point x="256" y="385" type="line" smooth="yes"/>
      <point x="256" y="234"/>
      <point x="387" y="106"/>
      <point x="537" y="106" type="curve" smooth="yes"/>
      <point x="690" y="106"/>
      <point x="815" y="232"/>
      <point x="815" y="385" type="curve" smooth="yes"/>
      <point x="815" y="1395" type="line"/>
      <point x="940" y="1395" type="line"/>
    </contour>
  </outline>
</glyph>
<glyph name="ucas_coo" format="2">
  <advance width="1130"/>
  <unicode hex="148E"/>
  <outline>
    <component base="ucas_co"/>
    <contour>
      <point x="976" y="1675" type="line"/>
      <point x="976" y="1609"/>
      <point x="923" y="1554"/>
      <point x="859" y="1554" type="curve" smooth="yes"/>
      <point x="795" y="1554"/>
      <point x="742" y="1610"/>
      <point x="742" y="1675" type="curve" smooth="yes"/>
      <point x="742" y="1740"/>
      <point x="795" y="1795"/>
      <point x="859" y="1795" type="curve" smooth="yes"/>
      <point x="923" y="1795"/>
      <point x="976" y="1740"/>
      <point x="976" y="1675" type="curve"/>
    </contour>
  </outline>
</glyph>
<glyph name="ucas_ca" format="2">
  <advance width="1130"/>
  <unicode hex="1490"/>
  <outline>
    <contour>
      <point x="1004" y="385" type="line" smooth="yes"/>
      <point x="1004" y="160"/>
      <point x="819" y="-16"/>
      <point x="596" y="-16" type="curve" smooth="yes"/>
      <point x="369" y="-16"/>
      <point x="190" y="170"/>
      <point x="190" y="395" type="curve" smooth="yes"/>
      <point x="190" y="1395" type="line"/>
      <point x="315" y="1395" type="line"/>
      <point x="315" y="385" type="line" smooth="yes"/>
      <point x="315" y="230"/>
      <point x="441" y="106"/>
      <point x="596" y="106" type="curve" smooth="yes"/>
      <point x="749" y="106"/>
      <point x="872" y="233"/>
      <point x="872" y="385" type="curve" smooth="yes"/>
      <point x="872" y="555" type="line"/>
      <point x="1004" y="555" type="line"/>
    </contour>
  </outline>
</glyph>
<glyph name="ucas_cwii" format="2">
  <advance width="1508"/>
  <unicode hex="1496"/>
  <outline>
    <component base="ucas_ci" xOffset="382"/>
    <component base="ucas_finalmiddledot" xOffset="10"/>
    <contour>
      <point x="1086" y="1675" type="line"/>
      <point x="1086" y="1609"/>
      <point x="1033" y="1554"/>
      <point x="969" y="1554" type="curve" smooth="yes"/>
      <point x="905" y="1554"/>
      <point x="852" y="1610"/>
      <point x="852" y="1675" type="curve" smooth="yes"/>
      <point x="852" y="1740"/>
      <point x="905" y="1795"/>
      <point x="969" y="1795" type="curve" smooth="yes"/>
      <point x="1033" y="1795"/>
      <point x="1086" y="1740"/>
      <point x="1086" y="1675" type="curve"/>
    </contour>
  </outline>
</glyph>
<glyph name="ucas_c" format="2">
  <advance width="809"/>
  <unicode hex="14A1"/>
  <outline>
    <contour>
      <point x="711" y="879" type="line" smooth="yes"/>
      <point x="711" y="721"/>
      <point x="575" y="600"/>
      <point x="420" y="600" type="curve" smooth="yes"/>
      <point x="268" y="600"/>
      <point x="127" y="717"/>
      <point x="127" y="874" type="curve" smooth="yes"/>
      <point x="127" y="1450" type="line"/>
      <point x="260" y="1450" type="line"/>
      <point x="260" y="879" type="line" smooth="yes"/>
      <point x="260" y="788"/>
      <point x="332" y="727"/>
      <point x="420" y="727" type="curve" smooth="yes"/>
      <point x="516" y="727"/>
      <point x="578" y="785"/>
      <point x="578" y="879" type="curve"/>
      <point x="578" y="879"/>
      <point x="578" y="948"/>
      <point x="578" y="981" type="curve"/>
      <point x="711" y="981" type="line"/>
    </contour>
  </outline>
</glyph>
<glyph name="ucas_me" format="2">
  <advance width="1122"/>
  <unicode hex="14A3"/>
  <outline>
    <contour>
      <point x="932" y="0" type="line"/>
      <point x="801" y="0" type="line"/>
      <point x="801" y="1268" type="line"/>
      <point x="127" y="1268" type="line"/>
      <point x="127" y="1393" type="line"/>
      <point x="932" y="1393" type="line"/>
    </contour>
  </outline>
</glyph>
<glyph name="ucas_maai" format="2">
  <advance width="1122"/>
  <unicode hex="14A4"/>
  <outline>
    <component base="ucas_mi"/>
    <contour>
      <point x="601" y="1942" type="line"/>
      <point x="707" y="1942"/>
      <point x="793" y="1856"/>
      <point x="793" y="1747" type="curve" smooth="yes"/>
      <point x="793" y="1638"/>
      <point x="708" y="1551"/>
      <point x="601" y="1551" type="curve" smooth="yes"/>
      <point x="494" y="1551"/>
      <point x="410" y="1639"/>
      <point x="410" y="1747" type="curve" smooth="yes"/>
      <point x="410" y="1856"/>
      <point x="494" y="1942"/>
      <point x="601" y="1942" type="curve"/>
    </contour>
    <contour>
      <point x="601" y="1872" type="line"/>
      <point x="533" y="1872"/>
      <point x="479" y="1817"/>
      <point x="479" y="1747" type="curve" smooth="yes"/>
      <point x="479" y="1678"/>
      <point x="533" y="1623"/>
      <point x="601" y="1623" type="curve" smooth="yes"/>
      <point x="669" y="1623"/>
      <point x="723" y="1678"/>
      <point x="723" y="1747" type="curve" smooth="yes"/>
      <point x="723" y="1817"/>
      <point x="669" y="1872"/>
      <point x="601" y="1872" type="curve"/>
    </contour>
  </outline>
</glyph>
<glyph name="ucas_ma" format="2">
  <advance width="1122"/>
  <unicode hex="14AA"/>
  <outline>
    <contour>
      <point x="995" y="0" type="line"/>
      <point x="190" y="0" type="line"/>
      <point x="190" y="1393" type="line"/>
      <point x="315" y="1393" type="line"/>
      <point x="315" y="125" type="line"/>
      <point x="995" y="125" type="line"/>
    </contour>
  </outline>
</glyph>
<glyph name="ucas_mwii" format="2">
  <advance width="1500"/>
  <unicode hex="14B0"/>
  <outline>
    <component base="ucas_mi" xOffset="380" yOffset="-1"/>
    <component base="ucas_finalmiddledot"/>
    <contour>
      <point x="1127" y="1675" type="line"/>
      <point x="1127" y="1609"/>
      <point x="1074" y="1554"/>
      <point x="1010" y="1554" type="curve" smooth="yes"/>
      <point x="946" y="1554"/>
      <point x="893" y="1610"/>
      <point x="893" y="1675" type="curve" smooth="yes"/>
      <point x="893" y="1740"/>
      <point x="946" y="1795"/>
      <point x="1010" y="1795" type="curve" smooth="yes"/>
      <point x="1074" y="1795"/>
      <point x="1127" y="1740"/>
      <point x="1127" y="1675" type="curve"/>
    </contour>
  </outline>
</glyph>
<glyph name="ucas_mwooWestCree" format="2">
  <advance width="1500"/>
  <unicode hex="14B5"/>
  <outline>
    <component base="ucas_mo"/>
    <component base="ucas_finalmiddledot" xOffset="1010"/>
    <contour>
      <point x="981" y="1675" type="line"/>
      <point x="981" y="1609"/>
      <point x="928" y="1554"/>
      <point x="864" y="1554" type="curve" smooth="yes"/>
      <point x="800" y="1554"/>
      <point x="747" y="1610"/>
      <point x="747" y="1675" type="curve" smooth="yes"/>
      <point x="747" y="1740"/>
      <point x="800" y="1795"/>
      <point x="864" y="1795" type="curve" smooth="yes"/>
      <point x="928" y="1795"/>
      <point x="981" y="1740"/>
      <point x="981" y="1675" type="curve"/>
    </contour>
  </outline>
</glyph>
<glyph name="ucas_mwaa" format="2">
  <advance width="1500"/>
  <unicode hex="14B8"/>
  <outline>
    <component base="ucas_ma" xOffset="376"/>
    <component base="ucas_finalmiddledot"/>
    <contour>
      <point x="749" y="1675" type="line"/>
      <point x="749" y="1609"/>
      <point x="696" y="1554"/>
      <point x="632" y="1554" type="curve" smooth="yes"/>
      <point x="568" y="1554"/>
      <point x="515" y="1610"/>
      <point x="515" y="1675" type="curve" smooth="yes"/>
      <point x="515" y="1740"/>
      <point x="568" y="1795"/>
      <point x="632" y="1795" type="curve" smooth="yes"/>
      <point x="696" y="1795"/>
      <point x="749" y="1740"/>
      <point x="749" y="1675" type="curve"/>
    </contour>
  </outline>
</glyph>
<glyph name="ucas_ni" format="2">
  <advance width="1661"/>
  <unicode hex="14C2"/>
  <outline>
    <contour>
      <point x="1534" y="674" type="line"/>
      <point x="827" y="674" type="line"/>
      <point x="898" y="599"/>
      <point x="938" y="501"/>
      <point x="938" y="397" type="curve" smooth="yes"/>
      <point x="938" y="172"/>
      <point x="756" y="-14"/>
      <point x="530" y="-14" type="curve" smooth="yes"/>
      <point x="304" y="-14"/>
      <point x="127" y="168"/>
      <point x="127" y="393" type="curve" smooth="yes"/>
      <point x="127" y="619"/>
      <point x="312" y="799"/>
      <point x="537" y="799" type="curve" smooth="yes"/>
      <point x="1534" y="799" type="line"/>
    </contour>
    <contour>
      <point x="807" y="395" type="line"/>
      <point x="807" y="551"/>
      <point x="681" y="674"/>
      <point x="526" y="674" type="curve" smooth="yes"/>
      <point x="372" y="674"/>
      <point x="250" y="545"/>
      <point x="250" y="393" type="curve" smooth="yes"/>
      <point x="250" y="243"/>
      <point x="381" y="117"/>
      <point x="530" y="117" type="curve" smooth="yes"/>
      <point x="684" y="117"/>
      <point x="807" y="241"/>
      <point x="807" y="395" type="curve"/>
    </contour>
  </outline>
</glyph>
<glyph name="ucas_no" format="2">
  <advance width="1661"/>
  <unicode hex="14C4"/>
  <outline>
    <contour>
      <point x="1536" y="408" type="line"/>
      <point x="1536" y="180"/>
      <point x="1353" y="0"/>
      <point x="1126" y="0" type="curve" smooth="yes"/>
      <point x="127" y="0" type="line"/>
      <point x="127" y="127" type="line"/>
      <point x="838" y="127" type="line"/>
      <point x="766" y="203"/>
      <point x="725" y="301"/>
      <point x="725" y="406" type="curve" smooth="yes"/>
      <point x="725" y="629"/>
      <point x="910" y="815"/>
      <point x="1133" y="815" type="curve" smooth="yes"/>
      <point x="1358" y="815"/>
      <point x="1536" y="632"/>
      <point x="1536" y="408" type="curve"/>
    </contour>
    <contour>
      <point x="1413" y="408" type="line"/>
      <point x="1413" y="561"/>
      <point x="1285" y="684"/>
      <point x="1133" y="684" type="curve" smooth="yes"/>
      <point x="979" y="684"/>
      <point x="856" y="559"/>
      <point x="856" y="406" type="curve" smooth="yes"/>
      <point x="856" y="253"/>
      <point x="985" y="127"/>
      <point x="1137" y="127" type="curve" smooth="yes"/>
      <point x="1287" y="127"/>
      <point x="1413" y="259"/>
      <point x="1413" y="408" type="curve"/>
    </contour>
  </outline>
</glyph>
<glyph name="ucas_nwaaNaskapi" format="2">
  <advance width="1661"/>
  <unicode hex="14CF"/>
  <outline>
    <component base="ucas_na"/>
    <contour>
      <point x="407" y="1305" type="line"/>
      <point x="407" y="1239"/>
      <point x="354" y="1184"/>
      <point x="290" y="1184" type="curve" smooth="yes"/>
      <point x="226" y="1184"/>
      <point x="173" y="1240"/>
      <point x="173" y="1305" type="curve" smooth="yes"/>
      <point x="173" y="1370"/>
      <point x="226" y="1425"/>
      <point x="290" y="1425" type="curve" smooth="yes"/>
      <point x="354" y="1425"/>
      <point x="407" y="1370"/>
      <point x="407" y="1305" type="curve"/>
    </contour>
    <contour>
      <point x="877" y="1305" type="line"/>
      <point x="877" y="1239"/>
      <point x="824" y="1184"/>
      <point x="760" y="1184" type="curve" smooth="yes"/>
      <point x="696" y="1184"/>
      <point x="643" y="1240"/>
      <point x="643" y="1305" type="curve" smooth="yes"/>
      <point x="643" y="1370"/>
      <point x="696" y="1425"/>
      <point x="760" y="1425" type="curve" smooth="yes"/>
      <point x="824" y="1425"/>
      <point x="877" y="1370"/>
      <point x="877" y="1305" type="curve"/>
    </contour>
  </outline>
</glyph>
<glyph name="ucas_nh" format="2">
  <advance width="1104"/>
  <unicode hex="14D2"/>
  <outline>
    <contour>
      <point x="127" y="760" type="line"/>
      <point x="703" y="760" type="line" smooth="yes"/>
      <point x="853" y="760"/>
      <point x="977" y="889"/>
      <point x="977" y="1038" type="curve" smooth="yes"/>
      <point x="977" y="1191"/>
      <point x="851" y="1317"/>
      <point x="698" y="1317" type="curve" smooth="yes"/>
      <point x="544" y="1317"/>
      <point x="422" y="1191"/>
      <point x="422" y="1038" type="curve" smooth="yes"/>
      <point x="422" y="986"/>
      <point x="435" y="935"/>
      <point x="463" y="891" type="curve"/>
      <point x="127" y="891" type="line"/>
    </contour>
    <contour>
      <point x="549" y="1038" type="line"/>
      <point x="549" y="1121"/>
      <point x="614" y="1190"/>
      <point x="698" y="1190" type="curve" smooth="yes"/>
      <point x="781" y="1190"/>
      <point x="850" y="1121"/>
      <point x="850" y="1038" type="curve" smooth="yes"/>
      <point x="850" y="953"/>
      <point x="783" y="887"/>
      <point x="698" y="887" type="curve" smooth="yes"/>
      <point x="613" y="887"/>
      <point x="549" y="954"/>
      <point x="549" y="1038" type="curve"/>
    </contour>
  </outline>
</glyph>
<glyph name="ucas_li" format="2">
  <advance width="1663"/>
  <unicode hex="14D5"/>
  <outline>
    <contour>
      <point x="1536" y="688" type="line"/>
      <point x="528" y="688" type="line" smooth="yes"/>
      <point x="376" y="688"/>
      <point x="250" y="562"/>
      <point x="250" y="410" type="curve" smooth="yes"/>
      <point x="250" y="257"/>
      <point x="375" y="131"/>
      <point x="528" y="131" type="curve" smooth="yes"/>
      <point x="696" y="131" type="line"/>
      <point x="696" y="0" type="line"/>
      <point x="528" y="0" type="line" smooth="yes"/>
      <point x="301" y="0"/>
      <point x="127" y="185"/>
      <point x="127" y="410" type="curve" smooth="yes"/>
      <point x="127" y="638"/>
      <point x="314" y="813"/>
      <point x="539" y="813" type="curve" smooth="yes"/>
      <point x="1536" y="813" type="line"/>
    </contour>
  </outline>
</glyph>
<glyph name="ucas_lo" format="2">
  <advance width="1663"/>
  <unicode hex="14D7"/>
  <outline>
    <contour>
      <point x="1538" y="403" type="line"/>
      <point x="1538" y="176"/>
      <point x="1351" y="0"/>
      <point x="1126" y="0" type="curve" smooth="yes"/>
      <point x="129" y="0" type="line"/>
      <point x="129" y="125" type="line"/>
      <point x="1137" y="125" type="line" smooth="yes"/>
      <point x="1290" y="125"/>
      <point x="1415" y="250"/>
      <point x="1415" y="403" type="curve" smooth="yes"/>
      <point x="1415" y="513"/>
      <point x="1347" y="620"/>
      <point x="1245" y="662" type="curve" smooth="yes"/>
      <point x="1211" y="676"/>
      <point x="1174" y="682"/>
      <point x="1137" y="682" type="curve"/>
      <point x="1137" y="682"/>
      <point x="1023" y="682"/>
      <point x="969" y="682" type="curve"/>
      <point x="969" y="813" type="line"/>
      <point x="1137" y="813" type="line" smooth="yes"/>
      <point x="1366" y="813"/>
      <point x="1538" y="630"/>
      <point x="1538" y="403" type="curve"/>
    </contour>
  </outline>
</glyph>
<glyph name="ucas_l" format="2">
  <advance width="1104"/>
  <unicode hex="14EA"/>
  <outline>
    <contour>
      <point x="977" y="758" type="line"/>
      <point x="401" y="758" type="line" smooth="yes"/>
      <point x="251" y="758"/>
      <point x="127" y="890"/>
      <point x="127" y="1038" type="curve" smooth="yes"/>
      <point x="127" y="1191"/>
      <point x="253" y="1317"/>
      <point x="406" y="1317" type="curve" smooth="yes"/>
      <point x="502" y="1317" type="line"/>
      <point x="502" y="1190" type="line"/>
      <point x="391" y="1190"/>
      <point x="254" y="1190"/>
      <point x="254" y="1038" type="curve" smooth="yes"/>
      <point x="254" y="953"/>
      <point x="321" y="887"/>
      <point x="406" y="887" type="curve" smooth="yes"/>
      <point x="977" y="887" type="line"/>
    </contour>
  </outline>
</glyph>
<glyph name="ucas_se" format="2">
  <advance width="1122"/>
  <unicode hex="14ED"/>
  <outline>
    <contour>
      <point x="932" y="0" type="line"/>
      <point x="801" y="0" type="line"/>
      <point x="801" y="633" type="line"/>
      <point x="731" y="633" type="line" smooth="yes"/>
      <point x="405" y="633"/>
      <point x="127" y="911"/>
      <point x="127" y="1237" type="curve" smooth="yes"/>
      <point x="127" y="1393" type="line"/>
      <point x="254" y="1393" type="line"/>
      <point x="253" y="1288" type="line" smooth="yes"/>
      <point x="251" y="1000"/>
      <point x="425" y="758"/>
      <point x="731" y="758" type="curve" smooth="yes"/>
      <point x="932" y="758" type="line"/>
    </contour>
  </outline>
</glyph>
<glyph name="ucas_saai" format="2">
  <advance width="1122"/>
  <unicode hex="14EE"/>
  <outline>
    <component base="ucas_si"/>
    <contour>
      <point x="915" y="1942" type="line"/>
      <point x="1021" y="1942"/>
      <point x="1107" y="1856"/>
      <point x="1107" y="1747" type="curve" smooth="yes"/>
      <point x="1107" y="1638"/>
      <point x="1022" y="1551"/>
      <point x="915" y="1551" type="curve" smooth="yes"/>
      <point x="808" y="1551"/>
      <point x="724" y="1639"/>
      <point x="724" y="1747" type="curve" smooth="yes"/>
      <point x="724" y="1856"/>
      <point x="808" y="1942"/>
      <point x="915" y="1942" type="curve"/>
    </contour>
    <contour>
      <point x="915" y="1872" type="line"/>
      <point x="847" y="1872"/>
      <point x="793" y="1817"/>
      <point x="793" y="1747" type="curve" smooth="yes"/>
      <point x="793" y="1678"/>
      <point x="847" y="1623"/>
      <point x="915" y="1623" type="curve" smooth="yes"/>
      <point x="983" y="1623"/>
      <point x="1037" y="1678"/>
      <point x="1037" y="1747" type="curve" smooth="yes"/>
      <point x="1037" y="1817"/>
      <point x="983" y="1872"/>
      <point x="915" y="1872" type="curve"/>
    </contour>
  </outline>
</glyph>
<glyph name="ucas_so" format="2">
  <advance width="1122"/>
  <unicode hex="14F1"/>
  <outline>
    <contour>
      <point x="932" y="635" type="line"/>
      <point x="731" y="635" type="line" smooth="yes"/>
      <point x="533" y="635"/>
      <point x="356" y="514"/>
      <point x="287" y="328" type="curve" smooth="yes"/>
      <point x="246" y="218"/>
      <point x="254" y="114"/>
      <point x="254" y="0" type="curve"/>
      <point x="127" y="0" type="line"/>
      <point x="127" y="156" type="line" smooth="yes"/>
      <point x="127" y="369"/>
      <point x="248" y="570"/>
      <point x="430" y="678" type="curve" smooth="yes"/>
      <point x="555" y="752"/>
      <point x="660" y="760"/>
      <point x="801" y="760" type="curve"/>
      <point x="801" y="1393" type="line"/>
      <point x="932" y="1393" type="line"/>
    </contour>
  </outline>
</glyph>
<glyph name="ucas_swii" format="2">
  <advance width="1500"/>
  <unicode hex="14FA"/>
  <outline>
    <component base="ucas_si" xOffset="370" yOffset="-2"/>
    <component base="ucas_finalmiddledot" xOffset="1" yOffset="-6"/>
    <contour>
      <point x="1416" y="1675" type="line"/>
      <point x="1416" y="1609"/>
      <point x="1363" y="1554"/>
      <point x="1299" y="1554" type="curve" smooth="yes"/>
      <point x="1235" y="1554"/>
      <point x="1182" y="1610"/>
      <point x="1182" y="1675" type="curve" smooth="yes"/>
      <point x="1182" y="1740"/>
      <point x="1235" y="1795"/>
      <point x="1299" y="1795" type="curve" smooth="yes"/>
      <point x="1363" y="1795"/>
      <point x="1416" y="1740"/>
      <point x="1416" y="1675" type="curve"/>
    </contour>
  </outline>
</glyph>
<glyph name="ucas_swiiWestCree" format="2">
  <advance width="1420"/>
  <unicode hex="14FB"/>
  <outline>
    <component base="ucas_si"/>
    <component base="ucas_finalmiddledot" xOffset="910"/>
    <contour>
      <point x="1046" y="1675" type="line"/>
      <point x="1046" y="1609"/>
      <point x="993" y="1554"/>
      <point x="929" y="1554" type="curve" smooth="yes"/>
      <point x="865" y="1554"/>
      <point x="812" y="1610"/>
      <point x="812" y="1675" type="curve" smooth="yes"/>
      <point x="812" y="1740"/>
      <point x="865" y="1795"/>
      <point x="929" y="1795" type="curve" smooth="yes"/>
      <point x="993" y="1795"/>
      <point x="1046" y="1740"/>
      <point x="1046" y="1675" type="curve"/>
    </contour>
  </outline>
</glyph>
<glyph name="ucas_s" format="2">
  <advance width="801"/>
  <unicode hex="1505"/>
  <outline>
    <contour>
      <point x="127" y="1450" type="line"/>
      <point x="258" y="1450" type="line"/>
      <point x="258" y="1091" type="line"/>
      <point x="299" y="1092" type="line" smooth="yes"/>
      <point x="504" y="1098"/>
      <point x="671" y="908"/>
      <point x="673" y="708" type="curve" smooth="yes"/>
      <point x="674" y="604" type="line"/>
      <point x="541" y="604" type="line"/>
      <point x="540" y="705" type="line" smooth="yes"/>
      <point x="539" y="844"/>
      <point x="429" y="960"/>
      <point x="288" y="960" type="curve" smooth="yes"/>
      <point x="127" y="960" type="line"/>
    </contour>
  </outline>
</glyph>
<glyph name="ucas_sw" format="2">
  <advance width="801"/>
  <unicode hex="1507"/>
  <outline>
    <contour>
      <point x="674" y="1450" type="line"/>
      <point x="543" y="1450" type="line"/>
      <point x="543" y="1091" type="line"/>
      <point x="502" y="1092" type="line" smooth="yes"/>
      <point x="297" y="1098"/>
      <point x="130" y="908"/>
      <point x="128" y="708" type="curve" smooth="yes"/>
      <point x="127" y="604" type="line"/>
      <point x="260" y="604" type="line"/>
      <point x="261" y="705" type="line" smooth="yes"/>
      <point x="262" y="844"/>
      <point x="372" y="960"/>
      <point x="513" y="960" type="curve" smooth="yes"/>
      <point x="674" y="960" type="line"/>
    </contour>
  </outline>
</glyph>
<glyph name="ucas_skwNaskapi" format="2">
  <advance width="801"/>
  <unicode hex="150A"/>
  <outline>
    <contour>
      <point x="360" y="742" type="line"/>
      <point x="442" y="742"/>
      <point x="511" y="673"/>
      <point x="511" y="591" type="curve" smooth="yes"/>
      <point x="511" y="508"/>
      <point x="443" y="440"/>
      <point x="360" y="440" type="curve" smooth="yes"/>
      <point x="283" y="440"/>
      <point x="210" y="504"/>
      <point x="210" y="583" type="curve" smooth="yes"/>
      <point x="210" y="672"/>
      <point x="267" y="742"/>
      <point x="360" y="742" type="curve"/>
    </contour>
    <contour>
      <point x="64" y="664" type="line"/>
      <point x="64" y="492"/>
      <point x="171" y="313"/>
      <point x="360" y="313" type="curve" smooth="yes"/>
      <point x="511" y="313"/>
      <point x="638" y="440"/>
      <point x="638" y="591" type="curve" smooth="yes"/>
      <point x="638" y="744"/>
      <point x="513" y="869"/>
      <point x="360" y="869" type="curve" smooth="yes"/>
      <point x="339" y="869"/>
      <point x="318" y="867"/>
      <point x="298" y="862" type="curve"/>
      <point x="422" y="979"/>
      <point x="537" y="961"/>
      <point x="699" y="960" type="curve"/>
      <point x="699" y="1450" type="line"/>
      <point x="568" y="1450" type="line"/>
      <point x="568" y="1091" type="line"/>
      <point x="525" y="1092" type="line" smooth="yes"/>
      <point x="377" y="1096"/>
      <point x="234" y="1006"/>
      <point x="148" y="888" type="curve" smooth="yes"/>
      <point x="108" y="832"/>
      <point x="64" y="734"/>
      <point x="64" y="664" type="curve"/>
    </contour>
  </outline>
</glyph>
<glyph name="ucas_swNaskapi" format="2">
  <advance width="698"/>
  <unicode hex="150B"/>
  <outline>
    <contour>
      <point x="374" y="1252" type="line"/>
      <point x="428" y="1252"/>
      <point x="482" y="1212"/>
      <point x="482" y="1154" type="curve" smooth="yes"/>
      <point x="482" y="1094"/>
      <point x="444" y="1035"/>
      <point x="379" y="1035" type="curve" smooth="yes"/>
      <point x="315" y="1035"/>
      <point x="270" y="1080"/>
      <point x="270" y="1144" type="curve" smooth="yes"/>
      <point x="270" y="1205"/>
      <point x="312" y="1252"/>
      <point x="374" y="1252" type="curve"/>
    </contour>
    <contour>
      <point x="374" y="350" type="line"/>
      <point x="430" y="350"/>
      <point x="482" y="312"/>
      <point x="482" y="252" type="curve" smooth="yes"/>
      <point x="482" y="193"/>
      <point x="444" y="134"/>
      <point x="379" y="134" type="curve" smooth="yes"/>
      <point x="316" y="134"/>
      <point x="270" y="178"/>
      <point x="270" y="241" type="curve" smooth="yes"/>
      <point x="270" y="304"/>
      <point x="310" y="350"/>
      <point x="374" y="350" type="curve"/>
    </contour>
    <contour>
      <point x="190" y="952" type="line"/>
      <point x="269" y="952" type="line"/>
      <point x="269" y="737" type="line"/>
      <point x="403" y="737"/>
      <point x="518" y="649"/>
      <point x="518" y="507" type="curve" smooth="yes"/>
      <point x="518" y="444" type="line"/>
      <point x="439" y="444" type="line"/>
      <point x="438" y="547"/>
      <point x="417" y="660"/>
      <point x="287" y="659" type="curve" smooth="yes"/>
      <point x="190" y="658" type="line"/>
    </contour>
  </outline>
</glyph>
<glyph name="ucas_spaNaskapi" format="2">
  <advance width="1595"/>
  <unicode hex="150C"/>
  <outline>
    <contour>
      <point x="335" y="696" type="line"/>
      <point x="1467" y="112" type="line"/>
      <point x="1467" y="-36" type="line"/>
      <point x="63" y="698" type="line"/>
      <point x="1467" y="1423" type="line"/>
      <point x="1467" y="1278" type="line"/>
    </contour>
    <contour>
      <point x="1046" y="1664" type="line"/>
      <point x="1101" y="1664"/>
      <point x="1154" y="1622"/>
      <point x="1154" y="1565" type="curve" smooth="yes"/>
      <point x="1154" y="1501"/>
      <point x="1113" y="1447"/>
      <point x="1046" y="1447" type="curve" smooth="yes"/>
      <point x="987" y="1447"/>
      <point x="941" y="1495"/>
      <point x="941" y="1554" type="curve" smooth="yes"/>
      <point x="941" y="1614"/>
      <point x="984" y="1664"/>
      <point x="1046" y="1664" type="curve"/>
    </contour>
    <contour>
      <point x="227" y="1254" type="line"/>
      <point x="281" y="1254"/>
      <point x="335" y="1213"/>
      <point x="335" y="1156" type="curve" smooth="yes"/>
      <point x="335" y="1097"/>
      <point x="297" y="1037"/>
      <point x="232" y="1037" type="curve" smooth="yes"/>
      <point x="169" y="1037"/>
      <point x="122" y="1081"/>
      <point x="122" y="1145" type="curve" smooth="yes"/>
      <point x="122" y="1206"/>
      <point x="165" y="1254"/>
      <point x="227" y="1254" type="curve"/>
    </contour>
    <contour>
      <point x="485" y="1690" type="line"/>
      <point x="564" y="1690" type="line"/>
      <point x="564" y="1475" type="line"/>
      <point x="698" y="1475"/>
      <point x="813" y="1387"/>
      <point x="813" y="1245" type="curve" smooth="yes"/>
      <point x="813" y="1182" type="line"/>
      <point x="734" y="1182" type="line"/>
      <point x="733" y="1285"/>
      <point x="712" y="1398"/>
      <point x="582" y="1397" type="curve" smooth="yes"/>
      <point x="485" y="1396" type="line"/>
    </contour>
  </outline>
</glyph>
<glyph name="ucas_skaNaskapi" format="2">
  <advance width="1542"/>
  <unicode hex="150E"/>
  <outline>
    <contour>
      <point x="1006" y="666" type="line"/>
      <point x="853" y="666"/>
      <point x="728" y="541"/>
      <point x="728" y="388" type="curve" smooth="yes"/>
      <point x="728" y="233"/>
      <point x="851" y="109"/>
      <point x="1006" y="109" type="curve" smooth="yes"/>
      <point x="1160" y="109"/>
      <point x="1285" y="234"/>
      <point x="1285" y="388" type="curve" smooth="yes"/>
      <point x="1285" y="542"/>
      <point x="1160" y="666"/>
      <point x="1006" y="666" type="curve"/>
    </contour>
    <contour>
      <point x="1006" y="-13" type="line"/>
      <point x="778" y="-13"/>
      <point x="603" y="173"/>
      <point x="603" y="398" type="curve" smooth="yes"/>
      <point x="603" y="1396" type="line"/>
      <point x="728" y="1396" type="line"/>
      <point x="728" y="688" type="line"/>
      <point x="803" y="759"/>
      <point x="903" y="797"/>
      <point x="1006" y="797" type="curve" smooth="yes"/>
      <point x="1232" y="797"/>
      <point x="1416" y="614"/>
      <point x="1416" y="388" type="curve" smooth="yes"/>
      <point x="1416" y="160"/>
      <point x="1231" y="-13"/>
      <point x="1006" y="-13" type="curve"/>
    </contour>
    <contour>
      <point x="364" y="1253" type="line"/>
      <point x="419" y="1253"/>
      <point x="472" y="1213"/>
      <point x="472" y="1155" type="curve" smooth="yes"/>
      <point x="472" y="1091"/>
      <point x="431" y="1037"/>
      <point x="364" y="1037" type="curve" smooth="yes"/>
      <point x="305" y="1037"/>
      <point x="259" y="1085"/>
      <point x="259" y="1144" type="curve" smooth="yes"/>
      <point x="259" y="1205"/>
      <point x="301" y="1253"/>
      <point x="364" y="1253" type="curve"/>
    </contour>
    <contour>
      <point x="364" y="352" type="line"/>
      <point x="418" y="352"/>
      <point x="472" y="311"/>
      <point x="472" y="253" type="curve" smooth="yes"/>
      <point x="472" y="193"/>
      <point x="434" y="136"/>
      <point x="369" y="136" type="curve" smooth="yes"/>
      <point x="315" y="136"/>
      <point x="257" y="170"/>
      <point x="257" y="230" type="curve" smooth="yes"/>
      <point x="257" y="294"/>
      <point x="296" y="352"/>
      <point x="364" y="352" type="curve"/>
    </contour>
    <contour>
      <point x="190" y="952" type="line"/>
      <point x="269" y="952" type="line"/>
      <point x="269" y="737" type="line"/>
      <point x="403" y="737"/>
      <point x="518" y="649"/>
      <point x="518" y="507" type="curve" smooth="yes"/>
      <point x="518" y="444" type="line"/>
      <point x="439" y="444" type="line"/>
      <point x="438" y="547"/>
      <point x="417" y="660"/>
      <point x="287" y="659" type="curve" smooth="yes"/>
      <point x="190" y="658" type="line"/>
    </contour>
  </outline>
</glyph>
<glyph name="ucas_she" format="2">
  <advance width="1616"/>
  <unicode hex="1510"/>
  <outline>
    <contour>
      <point x="1495" y="377" type="line"/>
      <point x="1495" y="182"/>
      <point x="1384" y="-20"/>
      <point x="1167" y="-20" type="curve" smooth="yes"/>
      <point x="537" y="-20"/>
      <point x="913" y="1276"/>
      <point x="455" y="1276" type="curve" smooth="yes"/>
      <point x="332" y="1276"/>
      <point x="260" y="1146"/>
      <point x="260" y="1036" type="curve" smooth="yes"/>
      <point x="260" y="975"/>
      <point x="274" y="915"/>
      <point x="285" y="856" type="curve"/>
      <point x="154" y="817" type="line"/>
      <point x="136" y="880"/>
      <point x="123" y="946"/>
      <point x="123" y="1012" type="curve" smooth="yes"/>
      <point x="123" y="1206"/>
      <point x="235" y="1409"/>
      <point x="451" y="1409" type="curve" smooth="yes"/>
      <point x="1080" y="1409"/>
      <point x="708" y="117"/>
      <point x="1163" y="117" type="curve" smooth="yes"/>
      <point x="1288" y="117"/>
      <point x="1358" y="241"/>
      <point x="1358" y="354" type="curve" smooth="yes"/>
      <point x="1358" y="414"/>
      <point x="1342" y="473"/>
      <point x="1331" y="532" type="curve"/>
      <point x="1464" y="571" type="line"/>
      <point x="1482" y="508"/>
      <point x="1495" y="443"/>
      <point x="1495" y="377" type="curve"/>
    </contour>
  </outline>
</glyph>
<glyph name="ucas_sha" format="2">
  <advance width="1933"/>
  <unicode hex="1515"/>
  <outline>
    <contour>
      <point x="1815" y="422" type="line"/>
      <point x="1815" y="233"/>
      <point x="1680" y="91"/>
      <point x="1526" y="0" type="curve"/>
      <point x="1456" y="119" type="line"/>
      <point x="1567" y="199"/>
      <point x="1675" y="265"/>
      <point x="1675" y="418" type="curve" smooth="yes"/>
      <point x="1675" y="514"/>
      <point x="1588" y="598"/>
      <point x="1493" y="598" type="curve" smooth="yes"/>
      <point x="1232" y="598"/>
      <point x="784" y="2"/>
      <point x="440" y="2" type="curve" smooth="yes"/>
      <point x="271" y="2"/>
      <point x="123" y="144"/>
      <point x="123" y="315" type="curve" smooth="yes"/>
      <point x="123" y="502"/>
      <point x="256" y="646"/>
      <point x="412" y="731" type="curve"/>
      <point x="479" y="612" type="line"/>
      <point x="372" y="538"/>
      <point x="258" y="465"/>
      <point x="258" y="319" type="curve" smooth="yes"/>
      <point x="258" y="218"/>
      <point x="343" y="143"/>
      <point x="442" y="143" type="curve" smooth="yes"/>
      <point x="719" y="143"/>
      <point x="1149" y="729"/>
      <point x="1491" y="729" type="curve" smooth="yes"/>
      <point x="1655" y="729"/>
      <point x="1815" y="591"/>
      <point x="1815" y="422" type="curve"/>
    </contour>
  </outline>
</glyph>
<glyph name="ucas_yooYCree" format="2">
  <advance width="1217"/>
  <unicode hex="152C"/>
  <outline>
    <component base="ucas_yo"/>
    <contour>
      <point x="606" y="1675" type="line"/>
      <point x="606" y="1609"/>
      <point x="553" y="1554"/>
      <point x="489" y="1554" type="curve" smooth="yes"/>
      <point x="425" y="1554"/>
      <point x="372" y="1610"/>
      <point x="372" y="1675" type="curve" smooth="yes"/>
      <point x="372" y="1740"/>
      <point x="425" y="1795"/>
      <point x="489" y="1795" type="curve" smooth="yes"/>
      <point x="553" y="1795"/>
      <point x="606" y="1740"/>
      <point x="606" y="1675" type="curve"/>
    </contour>
    <contour>
      <point x="1076" y="1675" type="line"/>
      <point x="1076" y="1609"/>
      <point x="1023" y="1554"/>
      <point x="959" y="1554" type="curve" smooth="yes"/>
      <point x="895" y="1554"/>
      <point x="842" y="1610"/>
      <point x="842" y="1675" type="curve" smooth="yes"/>
      <point x="842" y="1740"/>
      <point x="895" y="1795"/>
      <point x="959" y="1795" type="curve" smooth="yes"/>
      <point x="1023" y="1795"/>
      <point x="1076" y="1740"/>
      <point x="1076" y="1675" type="curve"/>
    </contour>
  </outline>
</glyph>
<glyph name="ucas_ywaaWestCree" format="2">
  <advance width="1650"/>
  <unicode hex="153C"/>
  <outline>
    <component base="ucas_ya"/>
    <component base="ucas_finalmiddledot" xOffset="1166"/>
    <contour>
      <point x="370" y="1675" type="line"/>
      <point x="370" y="1609"/>
      <point x="317" y="1554"/>
      <point x="253" y="1554" type="curve" smooth="yes"/>
      <point x="189" y="1554"/>
      <point x="136" y="1610"/>
      <point x="136" y="1675" type="curve" smooth="yes"/>
      <point x="136" y="1740"/>
      <point x="189" y="1795"/>
      <point x="253" y="1795" type="curve" smooth="yes"/>
      <point x="317" y="1795"/>
      <point x="370" y="1740"/>
      <point x="370" y="1675" type="curve"/>
    </contour>
  </outline>
</glyph>
<glyph name="ucas_reRCree" format="2">
  <advance width="1661"/>
  <unicode hex="1543"/>
  <outline>
    <contour>
      <point x="1534" y="397" type="line" smooth="yes"/>
      <point x="1534" y="169"/>
      <point x="1359" y="-10"/>
      <point x="1130" y="-10" type="curve" smooth="yes"/>
      <point x="904" y="-10"/>
      <point x="723" y="174"/>
      <point x="723" y="399" type="curve" smooth="yes"/>
      <point x="723" y="678" type="line"/>
      <point x="127" y="678" type="line"/>
      <point x="127" y="803" type="line"/>
      <point x="854" y="803" type="line"/>
      <point x="852" y="805" type="line"/>
      <point x="854" y="397" type="line" smooth="yes"/>
      <point x="855" y="244"/>
      <point x="978" y="121"/>
      <point x="1130" y="121" type="curve" smooth="yes"/>
      <point x="1282" y="121"/>
      <point x="1411" y="243"/>
      <point x="1411" y="397" type="curve" smooth="yes"/>
      <point x="1411" y="803" type="line"/>
      <point x="1534" y="803" type="line"/>
    </contour>
  </outline>
</glyph>
<glyph name="ucas_ri" format="2">
  <advance width="1661"/>
  <unicode hex="1546"/>
  <outline>
    <contour>
      <point x="1534" y="0" type="line"/>
      <point x="807" y="0" type="line"/>
      <point x="805" y="-2" type="line"/>
      <point x="807" y="401" type="line" smooth="yes"/>
      <point x="808" y="554"/>
      <point x="684" y="680"/>
      <point x="530" y="680" type="curve" smooth="yes"/>
      <point x="380" y="680"/>
      <point x="250" y="558"/>
      <point x="250" y="406" type="curve" smooth="yes"/>
      <point x="250" y="0" type="line"/>
      <point x="127" y="0" type="line"/>
      <point x="127" y="404" type="line" smooth="yes"/>
      <point x="127" y="631"/>
      <point x="302" y="811"/>
      <point x="530" y="811" type="curve" smooth="yes"/>
      <point x="601" y="811"/>
      <point x="672" y="792"/>
      <point x="733" y="756" type="curve" smooth="yes"/>
      <point x="983" y="610"/>
      <point x="938" y="372"/>
      <point x="938" y="125" type="curve"/>
      <point x="1534" y="125" type="line"/>
    </contour>
  </outline>
</glyph>
<glyph name="ucas_ra" format="2">
  <advance width="1128"/>
  <unicode hex="154B"/>
  <outline>
    <contour>
      <point x="940" y="1284" type="line"/>
      <point x="535" y="1284" type="line" smooth="yes"/>
      <point x="380" y="1284"/>
      <point x="256" y="1159"/>
      <point x="256" y="1004" type="curve" smooth="yes"/>
      <point x="256" y="852"/>
      <point x="384" y="727"/>
      <point x="535" y="727" type="curve" smooth="yes"/>
      <point x="938" y="727" type="line"/>
      <point x="938" y="0" type="line"/>
      <point x="813" y="0" type="line"/>
      <point x="813" y="596" type="line"/>
      <point x="537" y="596" type="line" smooth="yes"/>
      <point x="312" y="596"/>
      <point x="127" y="778"/>
      <point x="127" y="1004" type="curve" smooth="yes"/>
      <point x="127" y="1231"/>
      <point x="309" y="1407"/>
      <point x="535" y="1407" type="curve" smooth="yes"/>
      <point x="940" y="1407" type="line"/>
    </contour>
  </outline>
</glyph>
<glyph name="ucas_rwaa" format="2">
  <advance width="1508"/>
  <unicode hex="154E"/>
  <outline>
    <component base="ucas_ra" xOffset="381"/>
    <component base="ucas_finalmiddledot" xOffset="-7"/>
    <contour>
      <point x="1366" y="1675" type="line"/>
      <point x="1366" y="1609"/>
      <point x="1313" y="1554"/>
      <point x="1249" y="1554" type="curve" smooth="yes"/>
      <point x="1185" y="1554"/>
      <point x="1132" y="1610"/>
      <point x="1132" y="1675" type="curve" smooth="yes"/>
      <point x="1132" y="1740"/>
      <point x="1185" y="1795"/>
      <point x="1249" y="1795" type="curve" smooth="yes"/>
      <point x="1313" y="1795"/>
      <point x="1366" y="1740"/>
      <point x="1366" y="1675" type="curve"/>
    </contour>
  </outline>
</glyph>
<glyph name="ucas_r" format="2">
  <advance width="809"/>
  <unicode hex="1550"/>
  <outline>
    <contour>
      <point x="682" y="600" type="line"/>
      <point x="551" y="600" type="line"/>
      <point x="551" y="895" type="line"/>
      <point x="403" y="895" type="line" smooth="yes"/>
      <point x="253" y="895"/>
      <point x="127" y="1025"/>
      <point x="127" y="1174" type="curve" smooth="yes"/>
      <point x="127" y="1326"/>
      <point x="252" y="1450"/>
      <point x="403" y="1450" type="curve" smooth="yes"/>
      <point x="682" y="1450" type="line"/>
      <point x="682" y="1323" type="line"/>
      <point x="403" y="1323" type="line" smooth="yes"/>
      <point x="321" y="1323"/>
      <point x="254" y="1256"/>
      <point x="254" y="1174" type="curve" smooth="yes"/>
      <point x="254" y="1093"/>
      <point x="321" y="1022"/>
      <point x="403" y="1022" type="curve" smooth="yes"/>
      <point x="682" y="1022" type="line"/>
    </contour>
  </outline>
</glyph>
<glyph name="ucas_thoo" format="2">
  <advance width="1310"/>
  <unicode hex="1565"/>
  <outline>
    <component base="ucas_tho"/>
    <contour>
      <point x="461" y="1675" type="line"/>
      <point x="461" y="1609"/>
      <point x="408" y="1554"/>
      <point x="344" y="1554" type="curve" smooth="yes"/>
      <point x="280" y="1554"/>
      <point x="227" y="1610"/>
      <point x="227" y="1675" type="curve" smooth="yes"/>
      <point x="227" y="1740"/>
      <point x="280" y="1795"/>
      <point x="344" y="1795" type="curve" smooth="yes"/>
      <point x="408" y="1795"/>
      <point x="461" y="1740"/>
      <point x="461" y="1675" type="curve"/>
    </contour>
  </outline>
</glyph>
<glyph name="ucas_ttseCarrier" format="2">
  <advance width="1251"/>
  <unicode hex="1669"/>
  <outline>
    <contour>
      <point x="1045" y="37" type="line"/>
      <point x="1020" y="38"/>
      <point x="1008" y="39"/>
      <point x="1008" y="39" type="curve"/>
      <point x="217" y="39" type="line"/>
      <point x="217" y="39"/>
      <point x="205" y="38"/>
      <point x="180" y="37" type="curve"/>
      <point x="180" y="911" type="line"/>
      <point x="205" y="910"/>
      <point x="217" y="909"/>
      <point x="217" y="909" type="curve"/>
      <point x="1008" y="909" type="line"/>
      <point x="1008" y="909"/>
      <point x="1020" y="910"/>
      <point x="1045" y="911" type="curve"/>
    </contour>
    <contour>
      <point x="973" y="110" type="line"/>
      <point x="973" y="838" type="line"/>
      <point x="252" y="838" type="line"/>
      <point x="252" y="110" type="line"/>
    </contour>
  </outline>
</glyph>
<glyph name="ucas_fullstop" format="2">
  <advance width="684"/>
  <unicode hex="166E"/>
  <outline>
    <contour>
      <point x="621" y="2" type="line"/>
      <point x="492" y="2" type="line"/>
      <point x="342" y="174" type="line"/>
      <point x="190" y="2" type="line"/>
      <point x="63" y="2" type="line"/>
      <point x="279" y="248" type="line"/>
      <point x="63" y="494" type="line"/>
      <point x="190" y="494" type="line"/>
      <point x="342" y="322" type="line"/>
      <point x="492" y="494" type="line"/>
      <point x="621" y="494" type="line"/>
      <point x="406" y="248" type="line"/>
    </contour>
  </outline>
</glyph>
